<?xml version="1.0" encoding="utf-8"?><svg xml:space="preserve" viewBox="0 0 100 100" y="0" x="0" xmlns="http://www.w3.org/2000/svg" id="圖層_1" version="1.1" width="200px" height="200px" xmlns:xlink="http://www.w3.org/1999/xlink" style="width:100%;height:100%;background-size:initial;background-repeat-y:initial;background-repeat-x:initial;background-position-y:initial;background-position-x:initial;background-origin:initial;background-color:initial;background-clip:initial;background-attachment:initial;animation-play-state:paused" ><g class="ldl-scale" style="transform-origin:50% 50%;transform:rotate(0deg) scale(0.8, 0.8);animation-play-state:paused" ><circle stroke-miterlimit="10" stroke-width="4" stroke="#f47e60" fill="#ffdc6c" clip-rule="evenodd" fill-rule="evenodd" r="23.3" cy="32.1" cx="59.9" style="stroke:rgb(244, 126, 96);fill:rgb(255, 220, 108);animation-play-state:paused" ></circle>
<circle stroke-miterlimit="10" stroke-linecap="round" stroke-width="4" stroke="#000" fill="#e0e0e0" clip-rule="evenodd" fill-rule="evenodd" r="20.9" cy="63.6" cx="52" style="fill:rgb(224, 224, 224);animation-play-state:paused" ></circle>
<path stroke-miterlimit="10" stroke-linecap="round" stroke-width="4" stroke="#000" fill="#e0e0e0" clip-rule="evenodd" fill-rule="evenodd" d="M26.9 68.6c-4.2-4-6.9-9.6-6.9-15.8 0-12 9.7-21.7 21.7-21.7 10.3 0 18.9 7.1 21.1 16.7" style="fill:rgb(224, 224, 224);animation-play-state:paused" ></path>
<path stroke-miterlimit="10" stroke-linecap="round" stroke-width="4" stroke="#000" fill="#e0e0e0" clip-rule="evenodd" fill-rule="evenodd" d="M76.5 67c2.4-2.6 3.8-6.1 3.8-9.9 0-8.1-6.6-14.7-14.7-14.7-6.1 0-11.3 3.7-13.6 9" style="fill:rgb(224, 224, 224);animation-play-state:paused" ></path>
<path stroke-miterlimit="10" stroke-linecap="round" stroke-width="4" stroke="#000" fill="#e0e0e0" clip-rule="evenodd" fill-rule="evenodd" d="M67.3 64.5c2.7-2.3 6.2-3.7 10-3.7 8.4 0 15.2 6.8 15.2 15.2s-6.8 15.2-15.2 15.2H22.7c-8.4 0-15.2-6.8-15.2-15.2s6.8-15.2 15.2-15.2c1.6 0 3.1.2 4.5.7" style="fill:rgb(224, 224, 224);animation-play-state:paused" ></path>
<metadata xmlns:d="https://loading.io/stock/" style="animation-play-state:paused" ><d:name style="animation-play-state:paused" >sunny</d:name>
<d:tags style="animation-play-state:paused" >solar,sky,weather,cloud,mist,day,light,sunny,weather</d:tags>
<d:license style="animation-play-state:paused" >pro</d:license>
<d:slug style="animation-play-state:paused" >kpmbi7</d:slug></metadata></g><!-- generated by https://loading.io/ --></svg>